<?xml version="1.0" encoding="UTF-8"?>
<svg version="1.1" xmlns="http://www.w3.org/2000/svg" width="180" height="180">
<path d="M0 0 C59.4 0 118.8 0 180 0 C180 59.4 180 118.8 180 180 C120.6 180 61.2 180 0 180 C0 120.6 0 61.2 0 0 Z " fill="#322C1C" transform="translate(0,0)"/>
<path d="M0 0 C59.4 0 118.8 0 180 0 C180 21.12 180 42.24 180 64 C177.53473114 61.53473114 177.04846307 59.28518427 176 56 C175.67 55.67 175.34 55.34 175 55 C174.8669073 53.64836973 174.76889008 52.29322627 174.6875 50.9375 C174.20183549 45.88658909 172.47776355 42.3960321 170 38 C170.78375 37.62875 171.5675 37.2575 172.375 36.875 C175.60628829 34.56693694 176.07506212 32.78383679 177 29 C175.33984375 30.04166667 173.6796875 31.08333333 172.01953125 32.125 C169.41227065 33.25464483 167.82249422 33.39284337 165 33 C162.4921875 31.390625 162.4921875 31.390625 159.875 29.25 C154.53050039 25.15834379 149.40851919 22.91606064 143 21 C142.01 20.67 141.02 20.34 140 20 C133.00216283 19.40346306 126.32523024 19.72120718 120 23 C119.175 23.845625 118.35 24.69125 117.5 25.5625 C114.83621973 28.15968576 114.16514484 28.35690512 110.6875 28.9375 C105.37594732 29.83761212 102.00323642 32.53125563 98 36 C94.62199582 32.30776287 91.7918704 28.861317 89.4375 24.4375 C83.73377404 13.82173244 75.7496975 8.63257063 64.578125 4.76171875 C51.49523146 0.89631839 38.19341685 2.39106629 26.0625 8.47265625 C18.01547592 13.2002829 11.15879429 19.57577567 7 28 C6.154375 28.804375 5.30875 29.60875 4.4375 30.4375 C1.88789526 33.1178537 1.30937021 34.39068083 1 38 C0.67 38 0.34 38 0 38 C0 25.46 0 12.92 0 0 Z " fill="#FCDCAB" transform="translate(0,0)"/>
<path d="M0 0 C0 27.72 0 55.44 0 84 C-18.15 84 -36.3 84 -55 84 C-59.28543177 61.14436388 -59.28543177 61.14436388 -56 49 C-59.0745356 49.7763932 -59.0745356 49.7763932 -61 52 C-61.81487171 49.75083381 -62.62696918 47.50073022 -63.4375 45.25 C-63.66759766 44.61578125 -63.89769531 43.9815625 -64.13476562 43.328125 C-65.24244769 40.24587924 -66.29661036 37.20163562 -67 34 C-59.29555194 34.76779723 -53.58905032 36.2751307 -47.15625 40.66015625 C-45.06046066 41.96243115 -43.40917332 42.55649309 -41 43 C-43.79725313 37.40549373 -47.89682845 34.5775518 -53.76171875 32.62109375 C-55.06745822 32.21721637 -56.37613985 31.82273637 -57.6875 31.4375 C-65.87035208 29.02797213 -65.87035208 29.02797213 -68 26 C-68.70541917 21.9438398 -68.32120577 20.45747488 -65.9375 17.0625 C-63 15 -63 15 -59.75 14.9375 C-55.26697006 16.20769182 -51.18133245 17.96148191 -47 20 C-47 20.66 -47 21.32 -47 22 C-47.66 22 -48.32 22 -49 22 C-49 23.32 -49 24.64 -49 26 C-48.12021484 26.39058594 -48.12021484 26.39058594 -47.22265625 26.7890625 C-43.49757061 28.81854677 -40.8768528 31.92951288 -38 35 C-36.9790625 36.051875 -36.9790625 36.051875 -35.9375 37.125 C-35.628125 37.74375 -35.31875 38.3625 -35 39 C-35.8125 41.3046875 -35.8125 41.3046875 -37 44 C-37.68972365 45.66574768 -38.37722732 47.3324163 -39.0625 49 C-39.40410156 49.825 -39.74570313 50.65 -40.09765625 51.5 C-41.59177941 55.639562 -42.12799582 59.4242801 -42.0625 63.8125 C-42.05347656 64.60269531 -42.04445312 65.39289063 -42.03515625 66.20703125 C-42.02355469 66.79871094 -42.01195312 67.39039063 -42 68 C-41.01 68 -40.02 68 -39 68 C-38.93683594 67.15179688 -38.87367188 66.30359375 -38.80859375 65.4296875 C-37.21442379 50.15921738 -29.53574249 38.94109175 -21.06640625 26.5546875 C-17.68164352 21.58441386 -14.5324342 16.47771673 -11.47338867 11.30126953 C-4.61350314 0 -4.61350314 0 0 0 Z " fill="#C69EAF" transform="translate(180,96)"/>
<path d="M0 0 C0.78375 0.04125 1.5675 0.0825 2.375 0.125 C5.375 5.875 5.375 5.875 5.375 8.125 C6.365 7.795 7.355 7.465 8.375 7.125 C9.10823796 5.10991642 9.10823796 5.10991642 9.375 3.125 C11.025 3.125 12.675 3.125 14.375 3.125 C14.40078125 3.70507812 14.4265625 4.28515625 14.453125 4.8828125 C14.84659612 10.30198297 15.60613539 13.94869056 19.375 18.125 C24.52744273 20.88972537 30.66410296 20.7973839 36.375 20.125 C41.7560318 17.49172912 43.33292079 12.46406743 45.375 7.125 C47.025 7.125 48.675 7.125 50.375 7.125 C51.38592251 10.15776752 52.38782943 13.17081938 53.25 16.25 C54.49193166 19.42382535 55.75306744 20.97978245 58.375 23.125 C61.79732972 24.26577657 64.46173217 24.22315117 68.0625 24.1875 C69.24199219 24.17847656 70.42148438 24.16945313 71.63671875 24.16015625 C72.99216797 24.14275391 72.99216797 24.14275391 74.375 24.125 C73.8275495 32.51924098 69.95643313 40.38030876 64.2109375 46.51953125 C56.95936307 52.86080166 50.19923068 54.97001849 40.61328125 54.51953125 C30.75245736 53.31815222 22.50124763 47.84462146 16.375 40.125 C13.16751312 34.70247733 10.36236745 29.39363523 9.375 23.125 C7.7971875 22.7846875 7.7971875 22.7846875 6.1875 22.4375 C1.55645454 21.11568338 -1.24750128 18.39043344 -3.74609375 14.28125 C-4.78817697 11.72467251 -4.89144218 9.75406545 -4.875 7 C-4.88273438 5.69675781 -4.88273438 5.69675781 -4.890625 4.3671875 C-4.48272808 0.92405766 -3.40913164 0.1623396 0 0 Z " fill="#F9CA91" transform="translate(7.625,56.875)"/>
<path d="M0 0 C0.83144531 0.49371094 1.66289062 0.98742187 2.51953125 1.49609375 C3.60621094 2.13675781 4.69289063 2.77742188 5.8125 3.4375 C6.89144531 4.07558594 7.97039063 4.71367188 9.08203125 5.37109375 C16.0773343 9.27610228 25.9687323 9.11005047 33.7265625 7.3984375 C36.76190986 6.27297163 39.30794726 4.79470183 42 3 C42 20.82 42 38.64 42 57 C31.44 57 20.88 57 10 57 C9.79375 54.834375 9.5875 52.66875 9.375 50.4375 C8.40903661 41.53867728 6.71726398 32.77742851 5 24 C4.86857605 23.3270993 4.7371521 22.65419861 4.60174561 21.96090698 C3.16238591 14.61834065 1.66378535 7.29505884 0 0 Z " fill="#D6A364" transform="translate(23,123)"/>
<path d="M0 0 C4.75 0.75 4.75 0.75 7 3 C7.82198101 8.93534343 7.3123813 13.90402877 4 19 C2 21 2 21 -0.625 21.125 C-1.40875 21.08375 -2.1925 21.0425 -3 21 C-3.3403125 22.918125 -3.3403125 22.918125 -3.6875 24.875 C-6.06504406 35.37581961 -11.38331761 43.34961042 -20.25 49.4375 C-25.49927949 52.17420302 -31.64288462 51.80178529 -37.2734375 50.45703125 C-45.66691708 47.54664848 -53.21227963 41.95899151 -57.58984375 34.171875 C-58.86833525 31.46614784 -60.09186034 28.8521261 -61 26 C-60.67 25.34 -60.34 24.68 -60 24 C-59.34 24.33 -58.68 24.66 -58 25 C-52.61995758 25.60644601 -48.404216 26.0316689 -43.9375 22.75 C-40.62860664 18.05350619 -39.66759069 14.78578598 -39 9 C-36.8125 8.5 -36.8125 8.5 -34 9 C-32.49397485 10.92314582 -31.36091463 12.90137462 -30.2109375 15.0546875 C-29.00019454 17.29831629 -29.00019454 17.29831629 -26 19 C-21.3135743 19.76768116 -17.80309989 19.40885085 -13.5625 17.25 C-9.803372 13.94930225 -8.80912271 11.1700574 -8.375 6.25 C-8.30023438 5.45078125 -8.22546875 4.6515625 -8.1484375 3.828125 C-8.09945312 3.22484375 -8.05046875 2.6215625 -8 2 C-7.34 2 -6.68 2 -6 2 C-5.34 3.98 -4.68 5.96 -4 8 C-1.53721199 5.53721199 -1.00228745 3.29323018 0 0 Z " fill="#F4C68F" transform="translate(168,60)"/>
<path d="M0 0 C12.2146311 5.71637785 23.31617518 10.97602104 29 24 C30.6428414 28.93411211 31.87645056 33.92711791 33 39 C33.15098145 39.65258789 33.30196289 40.30517578 33.45751953 40.97753906 C35.30815635 49.02291812 36 55.58073407 36 64 C21.81 64 7.62 64 -7 64 C-3.64179104 53.92537313 -3.64179104 53.92537313 -1.703125 49.703125 C-1.10177734 48.35927734 -1.10177734 48.35927734 -0.48828125 46.98828125 C0.34576472 45.14390829 1.18706644 43.3028013 2.03515625 41.46484375 C2.43089844 40.57410156 2.82664062 39.68335938 3.234375 38.765625 C3.59756836 37.96930664 3.96076172 37.17298828 4.33496094 36.35253906 C5.14779313 33.47718993 4.91931985 31.8278698 4 29 C2.37347684 27.29413425 0.70993434 25.6222454 -1 24 C-1 23.34 -1 22.68 -1 22 C2.3 21.34 5.6 20.68 9 20 C8.04322296 15.21611481 6.53412184 12.27246042 3.9375 8.3125 C0 2.24807692 0 2.24807692 0 0 Z " fill="#406049" transform="translate(83,116)"/>
<path d="M0 0 C2 2 2 2 2.1953125 5.0390625 C2.17210938 6.22242187 2.14890625 7.40578125 2.125 8.625 C2.10695313 9.81351563 2.08890625 11.00203125 2.0703125 12.2265625 C2.04710938 13.14179687 2.02390625 14.05703125 2 15 C1.07316406 14.68289062 0.14632812 14.36578125 -0.80859375 14.0390625 C-8.22129791 11.62562394 -16.25759901 11.36111656 -24 12 C-24.66 12.66 -25.32 13.32 -26 14 C-31.43270542 13.73281777 -34.3897612 12.88139925 -39 10 C-45.58277997 7.91295953 -51.62988284 7.75779328 -58.5 7.875 C-59.51320313 7.88402344 -60.52640625 7.89304687 -61.5703125 7.90234375 C-64.04712801 7.92570993 -66.52343379 7.95846832 -69 8 C-68.02524076 -1.5851325 -68.02524076 -1.5851325 -66 -5 C-63.57421875 -6.328125 -63.57421875 -6.328125 -60.6875 -7.25 C-59.74261719 -7.56453125 -58.79773437 -7.8790625 -57.82421875 -8.203125 C-38.78690735 -13.57464855 -16.75416815 -10.20995563 0 0 Z " fill="#EFC38D" transform="translate(87,47)"/>
<path d="M0 0 C0.33 0 0.66 0 1 0 C1.00257812 0.92554687 1.00515625 1.85109375 1.0078125 2.8046875 C1.33779081 17.71250064 5.14547588 31.83778545 8.82250977 46.21630859 C11.77507552 57.82257288 13.39566454 68.99817574 13 81 C12.34 81 11.68 81 11 81 C9.38850579 78.6543468 7.89857334 76.31261837 6.4375 73.875 C5.54709791 72.40662626 4.65513755 70.93919645 3.76171875 69.47265625 C3.30716309 68.7264502 2.85260742 67.98024414 2.38427734 67.21142578 C1.06271729 65.1001928 -0.31408351 63.04460173 -1.73046875 60.99609375 C-2.36650024 60.06337646 -2.36650024 60.06337646 -3.01538086 59.11181641 C-3.82373143 57.93373776 -4.64576456 56.76490419 -5.48266602 55.60693359 C-6.578125 53.98828125 -6.578125 53.98828125 -8 51 C-7.04462532 46.53067872 -4.29714843 43.87880288 -1.2421875 40.6484375 C0.30090763 38.94469364 0.30090763 38.94469364 0 36 C-1.39567835 35.68680856 -2.79155082 35.37448212 -4.1875 35.0625 C-4.96480469 34.88847656 -5.74210938 34.71445313 -6.54296875 34.53515625 C-9.02347652 33.99488667 -11.50932716 33.49105628 -14 33 C-13.1719543 26.2614212 -11.49518891 19.9876071 -9.1875 13.625 C-8.83341064 12.60889648 -8.83341064 12.60889648 -8.47216797 11.57226562 C-6.76188805 7.02803274 -4.62283045 4.19767183 -1 1 C-0.67 0.67 -0.34 0.34 0 0 Z " fill="#406049" transform="translate(15,99)"/>
<path d="M0 0 C5.56651571 4.55343164 9.95284187 9.05938843 12.99609375 15.6328125 C13.24609375 18.5703125 13.24609375 18.5703125 12.99609375 20.6328125 C7.70334187 20.20172864 4.51246707 18.18213909 0.43359375 15.0078125 C-10.89629296 6.4916287 -10.89629296 6.4916287 -24.00390625 1.6328125 C-23.50890625 2.6228125 -23.50890625 2.6228125 -23.00390625 3.6328125 C-21.71703614 7.49342283 -21.86633007 10.57431533 -22.00390625 14.6328125 C-22.58140625 13.8903125 -23.15890625 13.1478125 -23.75390625 12.3828125 C-27.35162802 7.88191427 -27.35162802 7.88191427 -32.00390625 4.6328125 C-33.91793701 4.43612516 -33.91793701 4.43612516 -36.00390625 4.4453125 C-36.70515625 4.43113281 -37.40640625 4.41695312 -38.12890625 4.40234375 C-40.24915563 4.46768927 -40.24915563 4.46768927 -42.00390625 6.6328125 C-42.78765625 6.8803125 -43.57140625 7.1278125 -44.37890625 7.3828125 C-47.92336867 9.07065175 -49.5882495 11.05360488 -51.00390625 14.6328125 C-51.56499086 17.86329962 -51.96052769 21.09828398 -52.3671875 24.3515625 C-53.28006285 29.0559508 -55.34007189 32.6980648 -58.00390625 36.6328125 C-58.66390625 36.6328125 -59.32390625 36.6328125 -60.00390625 36.6328125 C-61.21504194 32.99940542 -61.32279662 30.45949696 -61.00390625 26.6328125 C-60.00594258 24.95880892 -59.00366484 23.28630402 -57.94140625 21.65234375 C-56.74386438 19.07263897 -56.68907344 16.90315786 -56.56640625 14.0703125 C-56.33528176 10.56492442 -56.11719573 7.9755976 -54.06640625 5.0703125 C-50.42622622 2.17302636 -47.86821029 1.84098183 -43.3671875 1.1875 C-39.87026732 0.36673526 -38.28659741 -1.69317785 -36.00390625 -4.3671875 C-24.62013195 -12.14147239 -10.4595182 -7.63832705 0 0 Z " fill="#6D4123" transform="translate(157.00390625,32.3671875)"/>
<path d="M0 0 C0.33 0.33 0.66 0.66 1 1 C3.33160055 1.09909302 5.66629942 1.12970504 8 1.125 C9.27875 1.12757813 10.5575 1.13015625 11.875 1.1328125 C14.86687244 1.35860893 14.86687244 1.35860893 16 0 C20.38989292 -0.46209399 20.38989292 -0.46209399 22.66650391 1.26220703 C24.34340749 3.44752371 24.26835557 4.3532281 23.9609375 7.0546875 C23.87457031 7.83457031 23.78820312 8.61445313 23.69921875 9.41796875 C23.59222656 10.22878906 23.48523438 11.03960937 23.375 11.875 C23.29121094 12.67808594 23.20742188 13.48117188 23.12109375 14.30859375 C22.40101382 20.29610772 21.03330696 24.11919106 16.5 28.3125 C11.60890694 30.67070558 7.33686174 30.92780509 2 30 C-1.93180225 28.030206 -4.38255885 25.05791652 -6 21 C-6.26118421 18.94553041 -6.44413443 16.88011991 -6.5625 14.8125 C-6.46789478 11.08992543 -6.46789478 11.08992543 -8 8 C-8.29573841 5.19048514 -8.38243085 3.58371024 -6.8125 1.1875 C-4.41628976 -0.38243085 -2.80951486 -0.29573841 0 0 Z " fill="#9F6435" transform="translate(39,140)"/>
<path d="M0 0 C0.66 0.33 1.32 0.66 2 1 C1.76216797 2.06734375 1.76216797 2.06734375 1.51953125 3.15625 C0.45452991 8.98573103 -0.18115401 14.81267776 2.6875 20.125 C5.2056088 22.16670984 6.79719931 22.73309994 10 23 C9.79623822 21.09415804 9.79623822 21.09415804 9 19 C8.319375 18.5875 7.63875 18.175 6.9375 17.75 C5 16 5 16 4.73828125 14.03515625 C4.74889767 12.02157477 4.868243 10.0092942 5 8 C5.87011719 8.44472656 5.87011719 8.44472656 6.7578125 8.8984375 C8.12813067 9.57166001 9.516507 10.21120327 10.9296875 10.7890625 C16.70930015 13.27267115 19.64154238 16.75877069 23 22 C21.47005208 23.23697917 19.94010417 24.47395833 18.41015625 25.7109375 C16.86733563 26.9666391 16.86733563 26.9666391 16 29 C15.92966231 30.87379605 15.9156978 32.75001102 15.9375 34.625 C15.94652344 35.62789062 15.95554687 36.63078125 15.96484375 37.6640625 C15.97644531 38.43492188 15.98804687 39.20578125 16 40 C15.175 39.52691406 14.35 39.05382812 13.5 38.56640625 C12.94989258 38.25155273 12.39978516 37.93669922 11.83300781 37.61230469 C10.59726643 36.90456788 9.36225489 36.19555537 8.12792969 35.48535156 C4.63397363 33.48108022 1.12407065 31.51644342 -2.421875 29.60546875 C-3.14375 29.21222412 -3.865625 28.81897949 -4.609375 28.41381836 C-6.01595781 27.64908521 -7.42733279 26.89308922 -8.84375 26.14672852 C-14.76867704 22.90505281 -14.76867704 22.90505281 -16 19 C-15.60167969 18.40832031 -15.20335938 17.81664063 -14.79296875 17.20703125 C-14.26316406 16.41683594 -13.73335938 15.62664062 -13.1875 14.8125 C-12.63578125 13.99136719 -12.0840625 13.17023438 -11.515625 12.32421875 C-9.92293903 9.94950932 -9.92293903 9.94950932 -8.4375 7.125 C-6.66493996 4.50469385 -4.7595044 3.48588698 -2 2 C-1.34 1.34 -0.68 0.68 0 0 Z " fill="#F5D6A6" transform="translate(92,85)"/>
<path d="M0 0 C3.72615287 1.24205096 4.02494476 2.27127114 5.91796875 5.62109375 C6.44970703 6.55630859 6.98144531 7.49152344 7.52929688 8.45507812 C8.07650391 9.43927734 8.62371094 10.42347656 9.1875 11.4375 C9.74630859 12.41783203 10.30511719 13.39816406 10.88085938 14.40820312 C15 21.71603136 15 21.71603136 15 24 C11.37 24.66 7.74 25.32 4 26 C5.55129248 30.1639956 6.4552221 32.49236604 9.75 35.5625 C10.86375 36.7690625 10.86375 36.7690625 12 38 C11.66672491 42.51184692 10.21730717 46.33753442 8.49609375 50.4921875 C8.00302734 51.69101563 7.50996094 52.88984375 7.00195312 54.125 C6.48060478 55.37505674 5.95911869 56.62505604 5.4375 57.875 C4.91153536 59.14820052 4.3861391 60.421636 3.86132812 61.6953125 C2.57978638 64.79923011 1.29251196 67.90063822 0 71 C-0.33 71 -0.66 71 -1 71 C-1.33 47.9 -1.66 24.8 -2 1 C-1.34 0.67 -0.68 0.34 0 0 Z " fill="#406049" transform="translate(71,109)"/>
<path d="M0 0 C0.99 0.86625 1.98 1.7325 3 2.625 C4.32962507 3.75438033 5.66315013 4.87918101 7 6 C7.63679688 6.53753906 8.27359375 7.07507813 8.9296875 7.62890625 C17.69441842 14.6512509 25.91261791 15.72339256 37 15 C39.00459318 14.69550483 41.00656782 14.37059309 43 14 C42.63265306 20.36734694 42.63265306 20.36734694 39.6875 23.3125 C32.61762253 27.75172539 26.18587641 27.80024861 18 27 C10.95472156 24.91801798 5.63064119 20.62190995 1 15 C-0.44207941 12.11584117 -0.09394887 9.58278472 -0.0625 6.375 C-0.05347656 5.18648438 -0.04445313 3.99796875 -0.03515625 2.7734375 C-0.02355469 1.85820313 -0.01195313 0.94296875 0 0 Z " fill="#F5C78F" transform="translate(21,100)"/>
<path d="M0 0 C3.23615717 2.9455314 5.61154319 5.83462958 7 10 C7.03954234 12.33299825 7.04401732 14.66708189 7 17 C8.02673828 16.26330078 8.02673828 16.26330078 9.07421875 15.51171875 C12.58973109 13.69529248 14.88278142 13.69341762 18.8125 13.8125 C20.55466797 13.85310547 20.55466797 13.85310547 22.33203125 13.89453125 C23.21246094 13.92933594 24.09289062 13.96414062 25 14 C25 14.33 25 14.66 25 15 C24.33613281 15.14695312 23.67226562 15.29390625 22.98828125 15.4453125 C16.81093587 16.90097063 16.81093587 16.90097063 12.375 21.125 C9.90569853 24.11415442 9.56751037 24.45625307 6 25 C2.14416753 25 0.42707154 24.4938517 -3 23 C-8.41292813 22.59147712 -12.83775801 23.55094962 -18 25 C-12.17677824 19.02353556 -12.17677824 19.02353556 -7.875 18.9375 C-6.92625 18.958125 -5.9775 18.97875 -5 19 C-5 18.01 -5 17.02 -5 16 C-9.95 16.495 -9.95 16.495 -15 17 C-15.31774533 12.3926927 -15.42909733 9.8746984 -13.375 5.6875 C-9.87536444 1.72738608 -5.42046599 -1.3551165 0 0 Z " fill="#F5C78F" transform="translate(124,41)"/>
<path d="M0 0 C4.95558442 2.00835538 4.95558442 2.00835538 10 1 C10.33 0.67 10.66 0.34 11 0 C17.71606334 -0.33093645 24.38354345 -0.23096866 31 1 C30.01171875 2.45703125 30.01171875 2.45703125 28 4 C25.20748417 4.37674518 22.61220799 4.60191941 19.8125 4.6875 C19.06291016 4.72166016 18.31332031 4.75582031 17.54101562 4.79101562 C15.69453162 4.87334294 13.84729006 4.93835281 12 5 C11.94552953 6.41623216 11.90699492 7.83308191 11.875 9.25 C11.85179687 10.03890625 11.82859375 10.8278125 11.8046875 11.640625 C12.02037609 14.24614317 12.6078822 15.79986977 14 18 C16.70183055 19.35091528 19.11808206 19.33858058 22.125 19.5625 C23.76855469 19.68818359 23.76855469 19.68818359 25.4453125 19.81640625 C26.70988281 19.90728516 26.70988281 19.90728516 28 20 C28 20.33 28 20.66 28 21 C24.7 21 21.4 21 18 21 C18 21.66 18 22.32 18 23 C20.97 23 23.94 23 27 23 C27 23.33 27 23.66 27 24 C20.04562862 24.50373716 15.7046717 24.15965645 10 20 C7.99706653 16.99559979 7.50728374 15.29006055 6.875 11.8125 C6.62363281 10.46091797 6.62363281 10.46091797 6.3671875 9.08203125 C6.24601562 8.39496094 6.12484375 7.70789063 6 7 C3.525 6.505 3.525 6.505 1 6 C0.9175 6.70125 0.835 7.4025 0.75 8.125 C-0.59792271 13.29203704 -3.45682637 17.21912504 -8 20 C-14.55937348 21.0245882 -20.2285825 20.19269904 -26 17 C-26.66 16.34 -27.32 15.68 -28 15 C-27.625 11.875 -27.625 11.875 -27 9 C-26.46375 9.78375 -25.9275 10.5675 -25.375 11.375 C-21.7698232 15.35966909 -18.07955654 16.0751092 -12.875 16.375 C-9.10627371 16.28104035 -9.10627371 16.28104035 -6.625 14.625 C-4.20627983 11.05938039 -4.20627983 11.05938039 -3 2 C-10.26 1.01 -17.52 0.02 -25 -1 C-25 -1.33 -25 -1.66 -25 -2 C-15.91672384 -4.8595499 -8.531022 -4.10145289 0 0 Z " fill="#393221" transform="translate(52,58)"/>
<path d="M0 0 C2.97 0.33 5.94 0.66 9 1 C8.55527344 1.49628906 8.11054688 1.99257812 7.65234375 2.50390625 C7.08644531 3.18324219 6.52054687 3.86257812 5.9375 4.5625 C5.36902344 5.22378906 4.80054688 5.88507813 4.21484375 6.56640625 C2.88253626 9.23530517 2.66417602 10.97156062 3.2409668 13.90112305 C4.98490584 18.72345946 8.09537081 22.89419917 10.9375 27.125 C12.22116082 29.06264954 13.50124513 31.00267431 14.77734375 32.9453125 C15.34702881 33.79625488 15.91671387 34.64719727 16.50366211 35.52392578 C18 38 18 38 20 43 C13.4 43 6.8 43 0 43 C0 28.81 0 14.62 0 0 Z " fill="#40604A" transform="translate(0,137)"/>
<path d="M0 0 C0.95681647 2.55151059 1.2094162 4.36292059 0.3515625 6.97265625 C-2.05028118 12.11260172 -4.83004702 15.41502351 -10 18 C-15.80352879 18.59018937 -18.95137463 18.11838415 -23.5234375 14.43359375 C-25.53760746 12.4780372 -26.85484258 10.55976364 -28 8 C-28 7.01 -28 6.02 -28 5 C-25.02426268 4.15238408 -22.04537716 3.32179043 -19.0625 2.5 C-17.81629883 2.14228516 -17.81629883 2.14228516 -16.54492188 1.77734375 C-10.85309057 0.2270395 -5.89805968 -0.23806497 0 0 Z " fill="#3A3322" transform="translate(151,86)"/>
<path d="M0 0 C6.11751235 0.09838105 11.77585366 1.62408662 17.625 3.3125 C18.12425898 9.42842251 16.97777477 12.38194887 13.625 17.3125 C9.15564955 19.54717522 4.36569138 18.54320715 -0.1875 17.125 C-3.73985329 15.1050344 -4.93939238 14.1126378 -6.375 10.3125 C-6.70966498 7.50563243 -6.60934895 5.17155714 -6.375 2.3125 C-3.95518915 -0.10731085 -3.32032792 0.0161181 0 0 Z " fill="#EFC38D" transform="translate(31.375,56.6875)"/>
<path d="M0 0 C0.33 0 0.66 0 1 0 C1 1.98 1 3.96 1 6 C2.24716797 6.07347656 2.24716797 6.07347656 3.51953125 6.1484375 C4.60621094 6.22320312 5.69289063 6.29796875 6.8125 6.375 C7.89144531 6.44460937 8.97039063 6.51421875 10.08203125 6.5859375 C13 7 13 7 16 9 C15.27061067 13.66174918 12.35707165 16.27123068 9.30078125 19.68359375 C7.7146026 21.9092097 7.7146026 21.9092097 8.49609375 24.30078125 C10.47678174 27.85573034 12.56502512 31.3171599 14.75 34.75 C15.19520996 35.45721191 15.64041992 36.16442383 16.09912109 36.89306641 C18.98517079 41.46028978 21.94388217 45.96942255 25.0390625 50.3984375 C26 52 26 52 26 54 C23.33984375 54.51953125 23.33984375 54.51953125 20 54 C17.68970201 51.53169199 16.180038 48.64028774 14.5625 45.6875 C13.61051524 44.03059435 12.65739135 42.37434266 11.703125 40.71875 C11.24486328 39.90921875 10.78660156 39.0996875 10.31445312 38.265625 C8.11259283 34.47044231 5.62995349 30.87634922 3.14453125 27.26171875 C1.77322559 24.55186899 1.5544235 22.99925687 2 20 C3.3125 17.98046875 3.3125 17.98046875 5 16.1875 C5.556875 15.58292969 6.11375 14.97835937 6.6875 14.35546875 C7.120625 13.90816406 7.55375 13.46085938 8 13 C5.36 12.34 2.72 11.68 0 11 C0 7.37 0 3.74 0 0 Z " fill="#2C291A" transform="translate(0,126)"/>
<path d="M0 0 C0.71671875 -0.01224609 1.4334375 -0.02449219 2.171875 -0.03710938 C6.31908708 -0.0485447 9.52380735 0.3317387 13.25 2.1875 C13.56549088 7.4456813 12.95016294 10.65122627 10.25 15.1875 C8.38895086 17.04854914 5.42963923 16.40423452 2.9375 16.4375 C1.78636719 16.46328125 0.63523437 16.4890625 -0.55078125 16.515625 C-4.0093118 16.16090392 -5.33796752 15.63963754 -7.75 13.1875 C-8.69738023 10.34535932 -8.88460559 8.51141609 -8.875 5.5625 C-8.87757812 4.76585938 -8.88015625 3.96921875 -8.8828125 3.1484375 C-8.5662719 -1.52519141 -3.62138868 0.00318784 0 0 Z " fill="#F1C58E" transform="translate(71.75,61.8125)"/>
<path d="M0 0 C0.86625 -0.03738281 1.7325 -0.07476562 2.625 -0.11328125 C5 0.3125 5 0.3125 6.78515625 2.0859375 C8.6074606 5.42585222 8.66902252 8.64742011 8 12.3125 C5.8755173 15.75562714 4.85147359 17.02867547 1 18.3125 C-6.05109489 18.87211071 -6.05109489 18.87211071 -9.4375 16.875 C-11.69711031 13.16923909 -12.34998414 9.63957662 -12 5.3125 C-8.85428213 0.81861732 -5.25512677 0.14858245 0 0 Z " fill="#F1C58E" transform="translate(149,58.6875)"/>
<path d="M0 0 C4 4 4 4 4 6 C7.3 6.99 10.6 7.98 14 9 C14.66 11.97 15.32 14.94 16 18 C14.96939453 18.92232422 14.96939453 18.92232422 13.91796875 19.86328125 C12.56638672 21.07564453 12.56638672 21.07564453 11.1875 22.3125 C10.29417969 23.11300781 9.40085937 23.91351563 8.48046875 24.73828125 C6.07820503 26.85941949 6.07820503 26.85941949 4.36328125 28.79296875 C3 30 3 30 0 30 C0 20.1 0 10.2 0 0 Z " fill="#F8D9A8" transform="translate(0,74)"/>
<path d="M0 0 C2.38488984 3.42179846 2.04851577 7.0399795 1.4375 11.0625 C-0.28939045 14.35181514 -1.0045801 14.8765267 -4.5625 16.0625 C-7.62575401 16.45739462 -10.50525391 16.53709055 -13.5625 16.0625 C-16.29033941 13.93345461 -17.24998222 12.45915026 -18.00390625 9.08984375 C-18.1875 7 -18.1875 7 -17.5625 3.0625 C-12.6788237 -1.94639877 -6.35843802 -2.32625781 0 0 Z " fill="#F3C78F" transform="translate(123.5625,66.9375)"/>
<path d="M0 0 C0.66 0.33 1.32 0.66 2 1 C1.60051765 7.22866358 -0.51629593 11.10619809 -3.9375 16.25 C-4.39318359 16.95640625 -4.84886719 17.6628125 -5.31835938 18.390625 C-7.18599133 21.27820822 -9.09243392 24.13865089 -11 27 C-14.5773172 25.80756093 -15.05952842 24.84410444 -17.0625 21.75 C-17.56910156 20.98171875 -18.07570312 20.2134375 -18.59765625 19.421875 C-19.99574135 17.00735476 -21.03172124 14.61296278 -22 12 C-20.88625 11.79375 -19.7725 11.5875 -18.625 11.375 C-11.34239067 9.56082686 -5.11158283 5.41640199 0 0 Z " fill="#F6C890" transform="translate(160,104)"/>
<path d="M0 0 C0.33 0 0.66 0 1 0 C1 13.2 1 26.4 1 40 C-0.32 40 -1.64 40 -3 40 C-5.4714607 27.11309778 -7.73932692 12.93591635 -1 1 C-0.67 0.67 -0.34 0.34 0 0 Z " fill="#43392F" transform="translate(179,140)"/>
<path d="M0 0 C0.66 0.33 1.32 0.66 2 1 C1.484375 1.639375 0.96875 2.27875 0.4375 2.9375 C-1.50041845 7.06610886 -1.28922191 10.64275633 0 15 C1.22954016 16.81299492 1.22954016 16.81299492 3 18 C8.40095741 18.5226733 11.56604267 18.39067325 16 15 C16.66 14.34 17.32 13.68 18 13 C18.66 13.99 19.32 14.98 20 16 C14.85852196 20.3590792 12.21010626 22.43245709 5.32421875 22.34375 C1.26378324 21.743215 -0.27982716 20.05190124 -3 17 C-4.375 13.6875 -4.375 13.6875 -5 11 C-6.65 11 -8.3 11 -10 11 C-10 13.31 -10 15.62 -10 18 C-10.33 18 -10.66 18 -11 18 C-11.33 16.02 -11.66 14.04 -12 12 C-12.33 13.98 -12.66 15.96 -13 18 C-13.33 18 -13.66 18 -14 18 C-14.103125 16.906875 -14.20625 15.81375 -14.3125 14.6875 C-14.97307727 11.14440371 -15.2027092 10.06756277 -18 8 C-13.59085217 6.89771304 -9.51617599 6.92345464 -5 7 C-4.731875 6.401875 -4.46375 5.80375 -4.1875 5.1875 C-3.01506533 3.02775192 -1.80630718 1.64209744 0 0 Z " fill="#3E3725" transform="translate(139,58)"/>
<path d="M0 0 C0.99 0.33 1.98 0.66 3 1 C3.20638953 25.98265839 3.20638953 25.98265839 2 36 C0.35 36 -1.3 36 -3 36 C-2.73944026 31.03343549 -2.47280373 26.06724953 -2.20043945 21.10131836 C-2.10858203 19.41065403 -2.01840891 17.71989733 -1.92993164 16.02905273 C-1.80273257 13.60374317 -1.66955123 11.17882635 -1.53515625 8.75390625 C-1.49656998 7.99348526 -1.4579837 7.23306427 -1.41822815 6.44960022 C-1.11387171 1.11387171 -1.11387171 1.11387171 0 0 Z " fill="#2C291A" transform="translate(103,144)"/>
<path d="M0 0 C-0.87929743 3.51718971 -1.71174492 5.68703734 -4.1875 8.375 C-7.84371588 10.48748029 -9.83330465 10.65789927 -14 10 C-16.3199818 8.52966066 -18.01466709 6.93691015 -20 5 C-14.28447359 1.18964906 -6.8536779 -0.55570361 0 0 Z " fill="#EFC48D" transform="translate(148,90)"/>
<path d="M0 0 C5.3089167 0.06598869 9.14873678 0.94306751 13.87866211 3.25976562 C13.87866211 4.57976563 13.87866211 5.89976563 13.87866211 7.25976562 C13.25862305 7.19917969 12.63858398 7.13859375 11.99975586 7.07617188 C3.96755773 6.31621135 -4.07008147 5.77043911 -12.12133789 5.25976562 C-9.15377929 -0.87318882 -6.73787486 0.03195956 0 0 Z " fill="#322C1C" transform="translate(37.121337890625,46.740234375)"/>
<path d="M0 0 C1.8125 1.125 1.8125 1.125 3 3 C3.39365568 6.14924548 3.52854531 8.11909116 1.875 10.875 C-0.88090884 12.52854531 -2.85075452 12.39365568 -6 12 C-7.875 10.875 -7.875 10.875 -9 9 C-9.4375 6 -9.4375 6 -9 3 C-6.30254095 0.00282328 -3.95012118 -0.60771095 0 0 Z " fill="#EAC58F" transform="translate(50,153)"/>
<path d="M0 0 C0.66902344 -0.020625 1.33804688 -0.04125 2.02734375 -0.0625 C6.44070826 -0.09718263 9.32943047 0.39523896 12.75 3.25 C13.5625 5.4375 13.5625 5.4375 13.75 7.25 C12.55375 7.105625 11.3575 6.96125 10.125 6.8125 C3.68262415 6.0909539 -2.78295884 5.68236264 -9.25 5.25 C-7.9148614 -0.66275666 -5.63019699 0.04241203 0 0 Z " fill="#332D1C" transform="translate(72.25,50.75)"/>
<path d="M0 0 C0.4138001 3.7504739 0.61368804 7.26541982 0 11 C-1.96320627 13.43210856 -4.11808428 14.81984899 -7 16 C-7.66 16 -8.32 16 -9 16 C-9.62817259 5.87944162 -9.62817259 5.87944162 -7.125 2.375 C-4.35563643 0.58305886 -3.36988206 0 0 0 Z " fill="#9D8E6A" transform="translate(14,30)"/>
<path d="M0 0 C7.80022065 2.8685594 15.65512232 7.54928556 21 14 C21 14.66 21 15.32 21 16 C15.25 15.25 15.25 15.25 13 13 C13.33 12.34 13.66 11.68 14 11 C8.4584498 9.03736764 4.79141983 8.98396143 -1 10 C-0.67 6.7 -0.34 3.4 0 0 Z " fill="#EFC891" transform="translate(140,42)"/>
<path d="M0 0 C2.69803895 0.47612452 5.12325343 1.04729492 7.6875 2.03125 C11.48658819 3.14230409 14.96126268 3.22360191 18.875 3.125 C19.56335938 3.11597656 20.25171875 3.10695313 20.9609375 3.09765625 C22.64077838 3.07432513 24.32043746 3.03846326 26 3 C26 3.99 26 4.98 26 6 C20.95625101 8.97605094 15.68212766 8.71547573 10 8 C6.43574636 6.67150546 3.23013498 5.00096857 0 3 C0 2.01 0 1.02 0 0 Z " fill="#3A3321" transform="translate(38,88)"/>
<path d="M0 0 C0.33 0 0.66 0 1 0 C1 4.95 1 9.9 1 15 C-6 16 -6 16 -8.4375 14.1875 C-10 12 -10 12 -10 10 C-9.0925 9.649375 -8.185 9.29875 -7.25 8.9375 C-3.08142471 6.45238781 -2.10847374 4.29804263 0 0 Z " fill="#6C4023" transform="translate(179,75)"/>
<path d="M0 0 C0.29296875 2.7265625 0.29296875 2.7265625 0 6 C-2.01171875 8.3359375 -2.01171875 8.3359375 -4.6875 10.375 C-5.55761719 11.06335938 -6.42773438 11.75171875 -7.32421875 12.4609375 C-10.20963795 14.12058008 -11.73497098 14.34121024 -15 14 C-14.66492913 11.01116787 -14.04314502 10.04098004 -11.8203125 7.9296875 C-10.48613281 6.91261719 -10.48613281 6.91261719 -9.125 5.875 C-8.24070313 5.19179687 -7.35640625 4.50859375 -6.4453125 3.8046875 C-1.29004329 0 -1.29004329 0 0 0 Z " fill="#372F23" transform="translate(180,107)"/>
<path d="M0 0 C2.4375 0.875 2.4375 0.875 4.4375 3.875 C4.1133631 7.19740324 3.82973697 8.48276303 1.4375 10.875 C-1.85964793 10.54528521 -3.1851839 10.2523161 -5.5625 7.875 C-5.93046448 5.00487704 -5.93759409 3.46725382 -4.375 1 C-2.5625 -0.125 -2.5625 -0.125 0 0 Z " fill="#3F342B" transform="translate(157.5625,152.125)"/>
<path d="M0 0 C0.33 0 0.66 0 1 0 C1.10957031 0.69867188 1.21914063 1.39734375 1.33203125 2.1171875 C1.49058594 3.02726562 1.64914063 3.93734375 1.8125 4.875 C1.96332031 5.77992187 2.11414063 6.68484375 2.26953125 7.6171875 C2.83051301 10.34412478 2.83051301 10.34412478 6 12 C8.96842658 12.45915507 8.96842658 12.45915507 12.1875 12.625 C13.27417969 12.69976562 14.36085938 12.77453125 15.48046875 12.8515625 C16.72763672 12.92503906 16.72763672 12.92503906 18 13 C18 13.33 18 13.66 18 14 C14.7 14 11.4 14 8 14 C8 14.66 8 15.32 8 16 C10.97 16 13.94 16 17 16 C17 16.33 17 16.66 17 17 C10.04562862 17.50373716 5.7046717 17.15965645 0 13 C-2 10 -2 10 -1.6875 7.625 C-1.460625 6.75875 -1.23375 5.8925 -1 5 C-0.814375 4.071875 -0.62875 3.14375 -0.4375 2.1875 C-0.293125 1.465625 -0.14875 0.74375 0 0 Z " fill="#4E442F" transform="translate(62,65)"/>
<path d="M0 0 C1.65 0 3.3 0 5 0 C5.33776684 1.7491497 5.67003671 3.49936145 6 5.25 C6.185625 6.22453125 6.37125 7.1990625 6.5625 8.203125 C7 11 7 11 7 15 C3.60472311 13.59505784 1.69352977 12.30238306 0 9 C-0.24492511 5.98273114 -0.17422028 3.01981824 0 0 Z " fill="#F0C68E" transform="translate(98,77)"/>
<path d="M0 0 C1.32 0 2.64 0 4 0 C4.45028522 6.30399313 3.61202629 10.71378634 0 16 C-0.66 16.33 -1.32 16.66 -2 17 C-1.85786703 15.10388566 -1.71113093 13.20811606 -1.5625 11.3125 C-1.48128906 10.25675781 -1.40007812 9.20101562 -1.31640625 8.11328125 C-1.03548319 5.34913703 -0.59843148 2.71054259 0 0 Z " fill="#EBC38D" transform="translate(88,68)"/>
<path d="M0 0 C9.27272727 0.92727273 9.27272727 0.92727273 12 3 C12.33 4.32 12.66 5.64 13 7 C8.38 7.33 3.76 7.66 -1 8 C-0.01 7.34 0.98 6.68 2 6 C1.34 5.34 0.68 4.68 0 4 C0.66 3.34 1.32 2.68 2 2 C1.34 1.34 0.68 0.68 0 0 Z " fill="#534933" transform="translate(142,50)"/>
<path d="M0 0 C2.5 0.125 2.5 0.125 3.5 1.125 C3.625 4.625 3.625 4.625 3.5 8.125 C2.5 9.125 2.5 9.125 0 9.25 C-2.5 9.125 -2.5 9.125 -3.5 8.125 C-3.625 4.625 -3.625 4.625 -3.5 1.125 C-2.5 0.125 -2.5 0.125 0 0 Z " fill="#342E1D" transform="translate(37.5,60.875)"/>
<path d="M0 0 C4.70588235 0.70588235 4.70588235 0.70588235 6 2 C6.125 5 6.125 5 6 8 C5 9 5 9 2.5 9.125 C0 9 0 9 -1 8 C-1.125 4.5 -1.125 4.5 -1 1 C-0.67 0.67 -0.34 0.34 0 0 Z " fill="#3A3221" transform="translate(115,69)"/>
<path d="M0 0 C4.70588235 0.70588235 4.70588235 0.70588235 6 2 C6.125 5 6.125 5 6 8 C5 9 5 9 2.4375 9.0625 C1.633125 9.041875 0.82875 9.02125 0 9 C-1.36623674 6.26752652 -1.128426 4.01801098 -1 1 C-0.67 0.67 -0.34 0.34 0 0 Z " fill="#3B3422" transform="translate(144,62)"/>
<path d="M0 0 C2.74086056 -0.22223194 4.43963721 -0.34781139 6.8125 1.125 C8.55198782 3.87155972 8.39769128 5.81846974 8 9 C6.875 10.875 6.875 10.875 5 12 C1.8125 12.1875 1.8125 12.1875 -1 12 C-1 11.34 -1 10.68 -1 10 C-0.195625 9.87625 0.60875 9.7525 1.4375 9.625 C2.283125 9.41875 3.12875 9.2125 4 9 C4.33 8.34 4.66 7.68 5 7 C4.34 7 3.68 7 3 7 C3 5.68 3 4.36 3 3 C2.01 2.67 1.02 2.34 0 2 C0 1.34 0 0.68 0 0 Z " fill="#F3CC94" transform="translate(45,153)"/>
<path d="M0 0 C0.53625 0.78375 1.0725 1.5675 1.625 2.375 C4.30242842 5.33426299 6.18433025 6.04608256 10 7 C10 7.66 10 8.32 10 9 C12.97 9.33 15.94 9.66 19 10 C19 10.33 19 10.66 19 11 C12.20726311 11.33165262 7.0213885 11.33098087 1 8 C0.34 7.34 -0.32 6.68 -1 6 C-0.625 2.875 -0.625 2.875 0 0 Z " fill="#473E2A" transform="translate(25,67)"/>
<path d="M0 0 C0.99 0.99 1.98 1.98 3 3 C-4.24135447 9.13940922 -4.24135447 9.13940922 -9.625 9.0625 C-10.85089844 9.04896484 -10.85089844 9.04896484 -12.1015625 9.03515625 C-13.04128906 9.01775391 -13.04128906 9.01775391 -14 9 C-14 8.01 -14 7.02 -14 6 C-12.86111328 5.85304688 -12.86111328 5.85304688 -11.69921875 5.703125 C-10.70535156 5.55359375 -9.71148437 5.4040625 -8.6875 5.25 C-7.70136719 5.11078125 -6.71523437 4.9715625 -5.69921875 4.828125 C-2.53202216 3.85642358 -1.66599922 2.79751404 0 0 Z " fill="#413926" transform="translate(156,71)"/>
<path d="M0 0 C0.10815225 1.76949095 0.18566083 3.54087487 0.25 5.3125 C0.29640625 6.29863281 0.3428125 7.28476562 0.390625 8.30078125 C0 11 0 11 -1.890625 12.85546875 C-4 14 -4 14 -6 14 C-6 12.35 -6 10.7 -6 9 C-4.68 9.66 -3.36 10.32 -2 11 C-3.37154504 8.04590299 -4.98863724 5.55991624 -7 3 C-3.375 0 -3.375 0 0 0 Z " fill="#EFD4A2" transform="translate(14,30)"/>
<path d="M0 0 C1.4540625 0.0309375 1.4540625 0.0309375 2.9375 0.0625 C2.97991723 2.39544775 2.97842937 4.72952567 2.9375 7.0625 C1.9375 8.0625 1.9375 8.0625 -0.5625 8.1875 C-3.0625 8.0625 -3.0625 8.0625 -4.0625 7.0625 C-4.1875 4.0625 -4.1875 4.0625 -4.0625 1.0625 C-3.0625 0.0625 -3.0625 0.0625 0 0 Z " fill="#2F2919" transform="translate(72.0625,64.9375)"/>
<path d="M0 0 C0 0.66 0 1.32 0 2 C-0.99 2.495 -0.99 2.495 -2 3 C-1.34 3.33 -0.68 3.66 0 4 C0 5.65 0 7.3 0 9 C-2.31 9 -4.62 9 -7 9 C-7 8.34 -7 7.68 -7 7 C-6.01 6.67 -5.02 6.34 -4 6 C-4.99 5.34 -5.98 4.68 -7 4 C-7 2.68 -7 1.36 -7 0 C-4.3333581 -1.33332095 -2.83319697 -0.67102033 0 0 Z " fill="#463A31" transform="translate(170,153)"/>
<path d="M0 0 C1.50433594 0.01353516 1.50433594 0.01353516 3.0390625 0.02734375 C3.80992187 0.03894531 4.58078125 0.05054687 5.375 0.0625 C3.395 1.0525 3.395 1.0525 1.375 2.0625 C2.695 2.7225 4.015 3.3825 5.375 4.0625 C3.725 4.0625 2.075 4.0625 0.375 4.0625 C0.375 6.3725 0.375 8.6825 0.375 11.0625 C0.045 11.0625 -0.285 11.0625 -0.625 11.0625 C-0.955 9.0825 -1.285 7.1025 -1.625 5.0625 C-1.955 7.0425 -2.285 9.0225 -2.625 11.0625 C-2.955 11.0625 -3.285 11.0625 -3.625 11.0625 C-3.728125 9.969375 -3.83125 8.87625 -3.9375 7.75 C-4.59807727 4.20690371 -4.8277092 3.13006277 -7.625 1.0625 C-4.98041621 -0.25979189 -2.94738699 -0.03427194 0 0 Z " fill="#64573E" transform="translate(128.625,64.9375)"/>
<path d="M0 0 C0.33 0 0.66 0 1 0 C1.37889976 4.73624704 1.44213557 8.09935347 -0.6875 12.4375 C-3.06553043 15.0726148 -4.61696486 16.06026802 -8 17 C-8 15.68 -8 14.36 -8 13 C-7.38125 12.7525 -6.7625 12.505 -6.125 12.25 C-1.72485752 9.66168089 -1.26010395 4.68038609 0 0 Z " fill="#393220" transform="translate(127,69)"/>
<path d="M0 0 C3.10360148 1.74104473 5.22476468 3.76580249 7.5625 6.4375 C7.5625 7.0975 7.5625 7.7575 7.5625 8.4375 C1.8125 7.6875 1.8125 7.6875 -0.4375 5.4375 C-0.1075 4.7775 0.2225 4.1175 0.5625 3.4375 C-1.7475 2.7775 -4.0575 2.1175 -6.4375 1.4375 C-3.97639823 -0.20323451 -2.93441499 -0.67717269 0 0 Z " fill="#E6C18C" transform="translate(153.4375,49.5625)"/>
<path d="M0 0 C0.99 0 1.98 0 3 0 C3.625 3.375 3.625 3.375 4 7 C3.34 7.66 2.68 8.32 2 9 C0.68 9 -0.64 9 -2 9 C-2 8.34 -2 7.68 -2 7 C-1.34 7 -0.68 7 0 7 C0 4.69 0 2.38 0 0 Z " fill="#3B3423" transform="translate(57,76)"/>
<path d="M0 0 C0.99 0.66 1.98 1.32 3 2 C1.18884044 3.81115956 -1.61278227 3.38199448 -4.0625 3.5625 C-5.16722656 3.64628906 -6.27195312 3.73007813 -7.41015625 3.81640625 C-8.69212891 3.90728516 -8.69212891 3.90728516 -10 4 C-10.33 3.01 -10.66 2.02 -11 1 C-7.31233808 -0.18005182 -3.84889483 -0.20993972 0 0 Z " fill="#423927" transform="translate(121,63)"/>
<path d="M0 0 C1.32 0 2.64 0 4 0 C4 0.99 4 1.98 4 3 C0.5233662 5.14336161 -2.21229195 5.21277626 -6.25 5.125 C-7.32765625 5.10695313 -8.4053125 5.08890625 -9.515625 5.0703125 C-10.33546875 5.04710938 -11.1553125 5.02390625 -12 5 C-12 4.67 -12 4.34 -12 4 C-10.95199219 3.94392578 -10.95199219 3.94392578 -9.8828125 3.88671875 C-8.97273438 3.82097656 -8.06265625 3.75523438 -7.125 3.6875 C-6.22007813 3.62949219 -5.31515625 3.57148437 -4.3828125 3.51171875 C-1.63778399 3.2117961 -1.63778399 3.2117961 0 0 Z " fill="#554933" transform="translate(60,91)"/>
<path d="M0 0 C1.32 0 2.64 0 4 0 C3.67 1.32 3.34 2.64 3 4 C3.66 4 4.32 4 5 4 C4.67 4.99 4.34 5.98 4 7 C2.68 7 1.36 7 0 7 C0 4.69 0 2.38 0 0 Z " fill="#534832" transform="translate(45,156)"/>
<path d="M0 0 C-0.99 0.33 -1.98 0.66 -3 1 C-3.33 1.99 -3.66 2.98 -4 4 C-5.84765625 4.73046875 -5.84765625 4.73046875 -8.0625 5.1875 C-8.79597656 5.34605469 -9.52945313 5.50460938 -10.28515625 5.66796875 C-11.13400391 5.83232422 -11.13400391 5.83232422 -12 6 C-6 -0.15789474 -6 -0.15789474 0 0 Z " fill="#C2A77A" transform="translate(118,60)"/>
<path d="M0 0 C0.66 0 1.32 0 2 0 C2.58053939 3.00997054 3.04900714 5.92888594 3 9 C1.1875 11.0625 1.1875 11.0625 -1 12 C-1.66 12 -2.32 12 -3 12 C-3 10.35 -3 8.7 -3 7 C-1.02 7.99 -1.02 7.99 1 9 C0.67 6.03 0.34 3.06 0 0 Z " fill="#CCB78B" transform="translate(11,32)"/>
<path d="M0 0 C0.66 0.33 1.32 0.66 2 1 C1.54625 1.7425 1.0925 2.485 0.625 3.25 C-0.68640796 5.46930578 -1.88280803 7.67967822 -3 10 C-3 8.68 -3 7.36 -3 6 C-3.66 5.67 -4.32 5.34 -5 5 C-3.35 3.35 -1.7 1.7 0 0 Z " fill="#4C422D" transform="translate(139,58)"/>
<path d="M0 0 C2.0625 0.4375 2.0625 0.4375 4 1 C0.31912647 3.45391569 -2.44355588 3.22802759 -6.6875 3.125 C-7.7403418 3.11146484 -7.7403418 3.11146484 -8.81445312 3.09765625 C-10.54311525 3.07413704 -12.27160145 3.03826713 -14 3 C-14 2.67 -14 2.34 -14 2 C-13.07316406 1.93941406 -12.14632812 1.87882812 -11.19140625 1.81640625 C-9.39509766 1.69072266 -9.39509766 1.69072266 -7.5625 1.5625 C-5.77005859 1.44068359 -5.77005859 1.44068359 -3.94140625 1.31640625 C-1.11429756 1.32343886 -1.11429756 1.32343886 0 0 Z " fill="#584D36" transform="translate(79,59)"/>
<path d="M0 0 C0.33 0 0.66 0 1 0 C1 2.64 1 5.28 1 8 C0.01 7.67 -0.98 7.34 -2 7 C-2 6.34 -2 5.68 -2 5 C-2.66 5 -3.32 5 -4 5 C-4 4.01 -4 3.02 -4 2 C-3.01 2.33 -2.02 2.66 -1 3 C-0.67 2.01 -0.34 1.02 0 0 Z " fill="#3F3826" transform="translate(11,33)"/>
<path d="M0 0 C1.98 0.495 1.98 0.495 4 1 C3.67 2.32 3.34 3.64 3 5 C1.68 4.67 0.36 4.34 -1 4 C-0.67 2.68 -0.34 1.36 0 0 Z " fill="#49351E" transform="translate(52,149)"/>
<path d="M0 0 C1.32 0 2.64 0 4 0 C4 1.65 4 3.3 4 5 C2.68 5 1.36 5 0 5 C0 3.35 0 1.7 0 0 Z " fill="#BF99A8" transform="translate(155,155)"/>
<path d="M0 0 C-0.99 0 -1.98 0 -3 0 C-3 0.66 -3 1.32 -3 2 C-2.01 2.33 -1.02 2.66 0 3 C-2.31 3.33 -4.62 3.66 -7 4 C-7 2.68 -7 1.36 -7 0 C-3.86650268 -1.04449911 -3.01031744 -0.93423645 0 0 Z " fill="#443B28" transform="translate(142,88)"/>
<path d="M0 0 C0.33 1.32 0.66 2.64 1 4 C2.32 4 3.64 4 5 4 C5 4.99 5 5.98 5 7 C2.5625 6.625 2.5625 6.625 0 6 C-1.24546405 3.50907189 -0.7767578 2.58919267 0 0 Z " fill="#4D4039" transform="translate(154,156)"/>
<path d="M0 0 C2 0 2 0 3.5 1.375 C3.995 1.91125 4.49 2.4475 5 3 C5.66 3.66 6.32 4.32 7 5 C5.35 5 3.7 5 2 5 C1.67 5.66 1.34 6.32 1 7 C0 4 0 4 0 0 Z " fill="#B18E9B" transform="translate(161,155)"/>
<path d="M0 0 C0.66 0 1.32 0 2 0 C2 1.65 2 3.3 2 5 C-0.31 4.67 -2.62 4.34 -5 4 C-4.67 3.34 -4.34 2.68 -4 2 C-2.68 2 -1.36 2 0 2 C0 1.34 0 0.68 0 0 Z " fill="#2A2516" transform="translate(134,64)"/>
<path d="M0 0 C0.66 0 1.32 0 2 0 C2 1.32 2 2.64 2 4 C-0.31 4 -2.62 4 -5 4 C-5 3.34 -5 2.68 -5 2 C-3.35 2 -1.7 2 0 2 C0 1.34 0 0.68 0 0 Z " fill="#372E23" transform="translate(168,158)"/>
</svg>
